<svg width="54" height="54" viewBox="0 0 54 54" fill="none" xmlns="http://www.w3.org/2000/svg">
<rect width="54" height="54" fill="#18181B"/>
<path d="M23.8944 24.312H41.0464V26.3344C41.0464 28.7408 40.6368 30.9936 39.8176 33.0928C39.0155 35.1749 37.8635 37.0096 36.3616 38.5968C34.8597 40.1669 33.0763 41.3957 31.0112 42.2832C28.9632 43.1707 26.7019 43.6144 24.2272 43.6144C21.6843 43.6144 19.3632 43.1621 17.264 42.2576C15.1648 41.3531 13.3557 40.0987 11.8368 38.4944C10.3179 36.8901 9.14027 35.0299 8.304 32.9136C7.4848 30.7803 7.0752 28.5019 7.0752 26.0784C7.0752 23.672 7.4848 21.4107 8.304 19.2944C9.14027 17.1611 10.3179 15.3008 11.8368 13.7136C13.3557 12.1093 15.1648 10.8549 17.264 9.9504C19.3632 9.04586 21.6843 8.5936 24.2272 8.5936C26.1899 8.5936 27.9392 8.80693 29.4752 9.2336C31.0112 9.66027 32.3509 10.2405 33.4944 10.9744C34.6549 11.6912 35.6533 12.4933 36.4896 13.3808C37.3429 14.2512 38.0512 15.1301 38.6144 16.0176L32.624 18.936C31.8048 17.7413 30.7125 16.7173 29.3472 15.864C27.9989 15.0107 26.2923 14.584 24.2272 14.584C22.6912 14.584 21.2747 14.8912 19.9776 15.5056C18.6976 16.1029 17.5883 16.9307 16.6496 17.9888C15.728 19.0469 15.0112 20.2757 14.4992 21.6752C13.9872 23.0576 13.7312 24.5253 13.7312 26.0784C13.7312 27.6485 13.9872 29.1248 14.4992 30.5072C15.0112 31.8896 15.728 33.1184 16.6496 34.1936C17.5883 35.2517 18.6976 36.0795 19.9776 36.6768C21.2747 37.2741 22.6912 37.5728 24.2272 37.5728C25.6267 37.5728 26.8981 37.368 28.0416 36.9584C29.1851 36.5488 30.1749 35.9685 31.0112 35.2176C31.8645 34.4667 32.5387 33.5877 33.0336 32.5808C33.5285 31.5568 33.8101 30.456 33.8784 29.2784H23.8944V24.312Z" fill="#F4F4F5"/>
<path d="M44.3984 43.6144C43.2549 43.6144 42.2736 43.2048 41.4544 42.3856C40.6352 41.5664 40.2256 40.5851 40.2256 39.4416C40.2256 38.264 40.6352 37.2656 41.4544 36.4464C42.2736 35.6272 43.2549 35.2176 44.3984 35.2176C45.576 35.2176 46.5659 35.6272 47.368 36.4464C48.1872 37.2656 48.5968 38.264 48.5968 39.4416C48.5968 40.5851 48.1872 41.5664 47.368 42.3856C46.5659 43.2048 45.576 43.6144 44.3984 43.6144Z" fill="#22C55E"/>
</svg>
