<?xml version="1.0" standalone="no"?>
<!DOCTYPE svg PUBLIC "-//W3C//DTD SVG 20010904//EN"
 "http://www.w3.org/TR/2001/REC-SVG-20010904/DTD/svg10.dtd">
<svg version="1.0" xmlns="http://www.w3.org/2000/svg"
 width="700.000000pt" height="700.000000pt" viewBox="0 0 700.000000 700.000000"
 preserveAspectRatio="xMidYMid meet">
<metadata>
Created by potrace 1.14, written by Peter Selinger 2001-2017
</metadata>
<g transform="translate(0.000000,700.000000) scale(0.100000,-0.100000)"
fill="#000000" stroke="none">
<path d="M1670 6980 c-63 -10 -137 -23 -165 -29 -75 -17 -249 -72 -259 -82 -6
-5 -16 -9 -24 -9 -26 0 -241 -111 -334 -172 -261 -171 -460 -379 -625 -653
-123 -205 -219 -494 -252 -765 -10 -81 -10 -3531 1 -3565 3 -11 9 -42 12 -70
9 -60 50 -227 75 -304 200 -606 698 -1083 1311 -1255 267 -74 120 -69 2050
-72 1039 -2 1763 1 1805 7 259 34 441 87 651 190 56 27 126 65 154 84 29 19
54 35 57 35 2 0 36 24 76 54 426 317 698 770 779 1296 10 67 13 447 13 1830 0
1770 -1 1813 -35 1950 -5 19 -14 58 -21 85 -18 76 -67 221 -107 310 -160 367
-441 682 -793 890 -70 41 -210 107 -294 138 -159 58 -229 76 -440 114 -22 4
-823 8 -1780 9 -1620 2 -1748 1 -1855 -16z"/>
</g>
</svg>
